<?xml version="1.0" encoding="utf-8"?>
<!-- Generator: Adobe Illustrator 25.0.0, SVG Export Plug-In . SVG Version: 6.00 Build 0)  -->
<svg version="1.1" id="facebook" xmlns="http://www.w3.org/2000/svg" xmlns:xlink="http://www.w3.org/1999/xlink" x="0px" y="0px"
	 viewBox="0 0 500 500" style="enable-background:new 0 0 500 500;" xml:space="preserve">
<style type="text/css">
	.facebook-container{fill:#3C599B;}
	.facebook{fill:#FFFFFF;}
</style>
<g id="outer-container_copy">
	<rect x="0" y="0" class="facebook-container" width="500" height="500"/>
</g>
<path class="facebook" d="M279.07,137.8v59.2h46.76c12.11,0,21.93,9.86,21.93,22.03v27.55c0,12.16-9.82,22.03-21.93,22.03h-46.76v177.18
	h-71.25V268.59h-36.75c-12.12,0-21.93-9.86-21.93-22.03v-27.55c0-12.16,9.8-22.03,21.93-22.03h36.75v-60.38
	c0-45.8,36.96-82.94,82.55-82.94h49.81c5.89,0,10.67,4.79,10.67,10.71v45.51c0,8.49-6.85,15.39-15.3,15.39h-44.02
	C284.65,125.28,279.07,130.88,279.07,137.8z"/>
</svg>
