<?xml version="1.0" encoding="utf-8"?>
<!-- Generator: Adobe Illustrator 25.0.0, SVG Export Plug-In . SVG Version: 6.00 Build 0)  -->
<svg version="1.1" id="Layer_1" xmlns="http://www.w3.org/2000/svg" xmlns:xlink="http://www.w3.org/1999/xlink" x="0px" y="0px"
	 viewBox="0 0 64 64" style="enable-background:new 0 0 64 64;" xml:space="preserve">
<style type="text/css">
	.st0{fill:#53B262;}
</style>
<path class="st0" d="M0,0v64h64V0H0z M32.7,50.14c-3.01,0-5.84-0.75-8.31-2.09l-9.51,2.48l2.56-9.2c-1.51-2.6-2.37-5.6-2.37-8.82
	c0-9.74,7.9-17.63,17.63-17.63s17.63,7.89,17.63,17.63C50.33,42.25,42.43,50.14,32.7,50.14z"/>
<path class="st0" d="M32.68,18.41c-7.82,0-14.15,6.33-14.15,14.15c0,2.58,0.69,5,1.91,7.08l-2.05,7.38L26,45.03
	c1.99,1.07,4.26,1.67,6.68,1.67c7.81,0,14.15-6.33,14.15-14.15C46.83,24.74,40.49,18.41,32.68,18.41z M41.16,39.22
	c-1.08,1.7-2.48,2.49-4.87,2.14c-11.49-1.77-12.07-12.6-12.07-12.6v-1.5c0-2.83,2.09-2.7,2.09-2.7h1.89c0,0,1.55,3.05,1.89,3.64
	c0.31,0.5-0.15,0.78-0.15,0.78s-0.47,0.51-1.15,1.15c-0.68,0.64-0.48,1.1-0.48,1.1c0.78,4.33,5.44,6.03,5.97,6.14
	c0.53,0.11,0.76-0.22,0.76-0.22s1.37-1.36,1.7-1.7c0.33-0.35,0.64,0.01,0.64,0.01l3.78,2.09V39.22z"/>
</svg>
