<?xml version="1.0" encoding="utf-8"?>
<!-- Generator: Adobe Illustrator 25.0.0, SVG Export Plug-In . SVG Version: 6.00 Build 0)  -->
<svg version="1.1" id="whatsapp" xmlns="http://www.w3.org/2000/svg" xmlns:xlink="http://www.w3.org/1999/xlink" x="0px" y="0px"
	 viewBox="0 0 500 500" style="enable-background:new 0 0 500 500;" xml:space="preserve">
<style type="text/css">
	.whatsapp-container{fill:#53B262;}
	.whatsapp-circle{fill:#FFFFFF;}
	.whatsapp-phone{fill:#53B262;}
</style>
<rect id="container" x="0" y="0" class="whatsapp-container" width="500" height="500"/>
<path id="circle" class="whatsapp-circle" d="M255.75,59.91c-106.89,0-193.57,86.6-193.57,193.5c0,35.29,9.47,68.32,26.07,96.84l-28.1,100.94
	l104.31-27.17c27.24,14.6,58.26,22.88,91.29,22.88c106.82,0,193.5-86.6,193.5-193.49C449.25,146.51,362.57,59.91,255.75,59.91z
	 M371.78,344.63c-14.74,23.21-33.94,34.03-66.64,29.25c-157.11-24.14-165.08-172.38-165.08-172.38v-20.45
	c0-38.65,28.59-36.97,28.59-36.97h25.91c0,0,21.22,41.66,25.91,49.72c4.27,6.86-2.01,10.64-2.01,10.64s-6.37,6.95-15.77,15.75
	c-9.3,8.74-6.62,15-6.62,15c10.73,59.19,74.36,82.42,81.66,83.94c7.21,1.51,10.4-2.94,10.4-2.94s18.7-18.61,23.32-23.3
	c4.52-4.78,8.7,0.16,8.7,0.16l51.64,28.59V344.63z"/>
<path id="phone" class="whatsapp-phone" d="M371.78,321.65v22.98c-14.74,23.21-33.94,34.03-66.64,29.25
	c-157.11-24.14-165.08-172.38-165.08-172.38v-20.45c0-38.65,28.59-36.97,28.59-36.97h25.91c0,0,21.22,41.66,25.91,49.72
	c4.27,6.86-2.01,10.64-2.01,10.64s-6.37,6.95-15.77,15.75c-9.3,8.74-6.62,15-6.62,15c10.73,59.19,74.36,82.42,81.66,83.94
	c7.21,1.51,10.4-2.94,10.4-2.94s18.7-18.61,23.32-23.3c4.52-4.78,8.7,0.16,8.7,0.16L371.78,321.65z"/>
</svg>
