<?xml version="1.0" encoding="utf-8"?>
<!-- Generator: Adobe Illustrator 25.0.0, SVG Export Plug-In . SVG Version: 6.00 Build 0)  -->
<svg version="1.1" id="Layer_1" xmlns="http://www.w3.org/2000/svg" xmlns:xlink="http://www.w3.org/1999/xlink" x="0px" y="0px"
	 viewBox="0 0 500 500" style="enable-background:new 0 0 500 500;" xml:space="preserve">
<style type="text/css">
	.st0{fill:#FFFFFF;stroke:#000000;stroke-width:10;stroke-miterlimit:10;}
	.st1{fill:#4FAE32;}
</style>
<circle class="st0" cx="250" cy="250" r="209.88"/>
<g>
	<polygon class="st1" points="250,323.99 136.14,406.71 179.63,272.86 65.78,190.14 206.51,190.14 250,56.3 293.49,190.14 
		434.22,190.14 320.37,272.86 363.86,406.71 	"/>
	<path d="M250,72.48l37.61,115.76l2.25,6.91h7.27h121.71l-98.47,71.54l-5.88,4.27l2.25,6.91l37.61,115.76l-98.47-71.54l-5.88-4.27
		l-5.88,4.27l-98.47,71.54l37.61-115.76l2.25-6.91l-5.88-4.27l-98.47-71.54h121.71h7.27l2.25-6.91L250,72.48 M250,40.12
		l-47.12,145.03H50.39l123.37,89.63L126.63,419.8L250,330.17l123.37,89.63l-47.12-145.03l123.37-89.63H297.12L250,40.12L250,40.12z"
		/>
</g>
</svg>
