<?xml version="1.0" encoding="utf-8"?>
<!-- Generator: Adobe Illustrator 25.0.0, SVG Export Plug-In . SVG Version: 6.00 Build 0)  -->
<svg version="1.1" id="Layer_1" xmlns="http://www.w3.org/2000/svg" xmlns:xlink="http://www.w3.org/1999/xlink" x="0px" y="0px"
	 viewBox="0 0 1920 1080" style="enable-background:new 0 0 1920 1080;" xml:space="preserve">
<style type="text/css">
	.st0{fill:#8E898D;}
	.st1{fill:#7F017F;}
	.st2{fill:#FFFFFF;}
</style>
<g>
	<g>
		<path class="st0" d="M424.59,856.61c-84.57,0-164.08-32.93-223.88-92.73c-59.8-59.8-92.73-139.31-92.73-223.88
			c0-84.57,32.93-164.08,92.73-223.88c59.8-59.8,139.31-92.73,223.88-92.73c84.57,0,164.08,32.93,223.88,92.73
			c59.8,59.8,92.73,139.31,92.73,223.88c0,84.57-32.93,164.08-92.73,223.88C588.66,823.67,509.16,856.61,424.59,856.61z"/>
		<path class="st1" d="M424.59,255.16c38.48,0,75.78,7.52,110.85,22.36c33.91,14.34,64.38,34.89,90.56,61.07
			c26.18,26.18,46.73,56.65,61.07,90.56c14.84,35.08,22.36,72.37,22.36,110.85s-7.52,75.78-22.36,110.85
			c-14.34,33.91-34.89,64.38-61.07,90.56c-26.18,26.18-56.65,46.73-90.56,61.07c-35.08,14.84-72.37,22.36-110.85,22.36
			s-75.78-7.52-110.85-22.36c-33.91-14.34-64.38-34.89-90.56-61.07s-46.73-56.65-61.07-90.56c-14.84-35.08-22.36-72.37-22.36-110.85
			s7.52-75.78,22.36-110.85c14.34-33.91,34.89-64.38,61.07-90.56s56.65-46.73,90.56-61.07
			C348.81,262.68,386.11,255.16,424.59,255.16 M424.59,191.63C232.19,191.63,76.22,347.6,76.22,540s155.97,348.37,348.37,348.37
			S772.96,732.4,772.96,540S616.99,191.63,424.59,191.63L424.59,191.63z"/>
	</g>
	<g>
		<path class="st0" d="M961.57,856.61c-84.57,0-164.08-32.93-223.88-92.73c-59.8-59.8-92.73-139.31-92.73-223.88
			c0-84.57,32.93-164.08,92.73-223.88c59.8-59.8,139.31-92.73,223.88-92.73c84.57,0,164.08,32.93,223.88,92.73
			c59.8,59.8,92.73,139.31,92.73,223.88c0,84.57-32.93,164.08-92.73,223.88C1125.64,823.67,1046.14,856.61,961.57,856.61z"/>
		<g>
			<path class="st1" d="M961.57,255.16c38.48,0,75.78,7.52,110.85,22.36c33.91,14.34,64.38,34.89,90.56,61.07
				c26.18,26.18,46.73,56.65,61.07,90.56c14.84,35.08,22.36,72.37,22.36,110.85s-7.52,75.78-22.36,110.85
				c-14.34,33.91-34.89,64.38-61.07,90.56c-26.18,26.18-56.65,46.73-90.56,61.07c-35.08,14.84-72.37,22.36-110.85,22.36
				s-75.78-7.52-110.85-22.36c-33.91-14.34-64.38-34.89-90.56-61.07c-26.18-26.18-46.73-56.65-61.07-90.56
				c-14.84-35.08-22.36-72.37-22.36-110.85s7.52-75.78,22.36-110.85c14.34-33.91,34.89-64.38,61.07-90.56
				c26.18-26.18,56.65-46.73,90.56-61.07C885.79,262.68,923.09,255.16,961.57,255.16 M961.57,191.63
				C769.17,191.63,613.2,347.6,613.2,540s155.97,348.37,348.37,348.37S1309.94,732.4,1309.94,540S1153.97,191.63,961.57,191.63
				L961.57,191.63z"/>
		</g>
	</g>
	<g>
		<path class="st0" d="M1498.47,856.61c-84.57,0-164.08-32.93-223.88-92.73c-59.8-59.8-92.73-139.31-92.73-223.88
			c0-84.57,32.93-164.08,92.73-223.88c59.8-59.8,139.31-92.73,223.88-92.73c84.57,0,164.08,32.93,223.88,92.73
			c59.8,59.8,92.73,139.31,92.73,223.88c0,84.57-32.93,164.08-92.73,223.88C1662.55,823.67,1583.04,856.61,1498.47,856.61z"/>
		<g>
			<path class="st1" d="M1498.47,255.16c38.48,0,75.78,7.52,110.85,22.36c33.91,14.34,64.38,34.89,90.56,61.07
				c26.18,26.18,46.73,56.65,61.07,90.56c14.84,35.08,22.36,72.37,22.36,110.85s-7.52,75.78-22.36,110.85
				c-14.34,33.91-34.89,64.38-61.07,90.56c-26.18,26.18-56.65,46.73-90.56,61.07c-35.08,14.84-72.37,22.36-110.85,22.36
				c-38.48,0-75.78-7.52-110.85-22.36c-33.91-14.34-64.38-34.89-90.56-61.07c-26.18-26.18-46.73-56.65-61.07-90.56
				c-14.84-35.08-22.36-72.37-22.36-110.85s7.52-75.78,22.36-110.85c14.34-33.91,34.89-64.38,61.07-90.56
				c26.18-26.18,56.65-46.73,90.56-61.07C1422.69,262.68,1459.99,255.16,1498.47,255.16 M1498.47,191.63
				c-192.4,0-348.37,155.97-348.37,348.37s155.97,348.37,348.37,348.37S1846.84,732.4,1846.84,540S1690.87,191.63,1498.47,191.63
				L1498.47,191.63z"/>
		</g>
	</g>
	<g>
		<g>
			<path class="st2" d="M378.42,470.62h-98.43v-54.04H544.4v54.04h-98.08v225.6h-67.91V470.62z"/>
		</g>
	</g>
	<g>
		<g>
			<path class="st2" d="M864.91,416.58h144.69c65.02,0,108.25,32.87,108.25,87.89c0,57.19-40.72,91.42-109.32,91.42h-75.41v100.33
				h-68.21V416.58z M933.12,543.2h70.15c28.74,0,46.92-9.86,46.92-37.63c0-22.64-13.92-36.65-46.92-36.65h-70.15V543.2z"/>
		</g>
	</g>
	<g>
		<g>
			<path class="st2" d="M1369.83,696.22l-79.53-279.64h71.2c16.43,64.57,44.54,168.13,50.84,218.58h0.4
				c9.2-51.53,37.98-153.54,56.96-218.58h64.6c17.59,61.52,48.67,175.64,56.27,216.43h0.75c8.13-50.95,35.47-153.78,51.65-216.43
				h68.26l-84.53,279.64h-73.44c-17.94-61.67-46.47-168.13-55.58-208.35h-0.4c-8.45,47.55-34.69,139.74-54.51,208.35H1369.83z"/>
		</g>
	</g>
</g>
</svg>
