<?xml version="1.0" encoding="utf-8"?>
<!-- Generator: Adobe Illustrator 25.0.0, SVG Export Plug-In . SVG Version: 6.00 Build 0)  -->
<svg version="1.1" id="Layer_1" xmlns="http://www.w3.org/2000/svg" xmlns:xlink="http://www.w3.org/1999/xlink" x="0px" y="0px"
	 viewBox="0 0 32 32" style="enable-background:new 0 0 32 32;" xml:space="preserve">
<style type="text/css">
	.line{fill:#FFFFFF;}
</style>
<g>
	<path class="line" d="M30.68,11.33H1.32c-0.42,0-0.77-0.34-0.77-0.77V9.05c0-0.42,0.34-0.77,0.77-0.77h29.35
		c0.42,0,0.77,0.34,0.77,0.77v1.52C31.44,10.99,31.1,11.33,30.68,11.33z"/>
	<path class="line" d="M30.68,17.53H1.32c-0.42,0-0.77-0.34-0.77-0.77v-1.52c0-0.42,0.34-0.77,0.77-0.77h29.35
		c0.42,0,0.77,0.34,0.77,0.77v1.52C31.44,17.18,31.1,17.53,30.68,17.53z"/>
	<path class="line" d="M30.68,23.72H1.32c-0.42,0-0.77-0.34-0.77-0.77v-1.52c0-0.42,0.34-0.77,0.77-0.77h29.35
		c0.42,0,0.77,0.34,0.77,0.77v1.52C31.44,23.38,31.1,23.72,30.68,23.72z"/>
</g>
</svg>
