<?xml version="1.0" encoding="utf-8"?>
<!-- Generator: Adobe Illustrator 25.0.0, SVG Export Plug-In . SVG Version: 6.00 Build 0)  -->
<svg version="1.1" xmlns="http://www.w3.org/2000/svg" xmlns:xlink="http://www.w3.org/1999/xlink" x="0px" y="0px"
	 viewBox="0 0 32 32" style="enable-background:new 0 0 32 32;" xml:space="preserve">
<style type="text/css">
	.st0{display:none;}
	.st1{display:inline;fill:#00FF00;}
	.st2{fill:#FF0000;}
</style>
<g id="tick" class="st0">
	<path class="st1" d="M16.02,0.41C7.38,0.41,0.39,7.38,0.39,16s6.99,15.59,15.63,15.59c8.6,0,15.59-6.97,15.59-15.59
		S24.62,0.41,16.02,0.41z M12.39,23.05L7.46,18.1c-0.71-0.69-0.71-1.79,0-2.47c0.33-0.33,0.77-0.49,1.24-0.49
		c0.41,0,0.88,0.16,1.24,0.51l2.45,2.47c0.71,0.69,1.81,0.69,2.47,0l8.64-8.64c0.67-0.67,1.79-0.67,2.47,0
		c0.67,0.69,0.67,1.79,0,2.47l-9.88,9.88l-1.26,1.28C14.13,23.74,13.07,23.72,12.39,23.05z"/>
</g>
<g id="Layer_2">
	<path class="st2" d="M16.02,0.41C7.38,0.41,0.39,7.38,0.39,16s6.99,15.59,15.63,15.59c8.6,0,15.59-6.97,15.59-15.59
		S24.62,0.41,16.02,0.41z M23.52,23.52c-0.35,0.33-0.79,0.51-1.24,0.51c-0.47,0-0.88-0.18-1.24-0.51l-3.81-3.81
		c-0.71-0.69-1.81-0.69-2.47,0l-3.81,3.81c-0.69,0.69-1.79,0.69-2.47,0c-0.08-0.08-0.16-0.18-0.22-0.27
		c-0.2-0.29-0.31-0.63-0.31-0.96c0-0.31,0.12-0.67,0.31-0.94c0.06-0.1,0.14-0.2,0.22-0.27l3.83-3.83c0.26-0.26,0.41-0.57,0.47-0.9
		c0.04-0.22,0.04-0.45,0-0.67c-0.06-0.33-0.22-0.65-0.47-0.9l-3.83-3.83c-0.67-0.67-0.67-1.77,0-2.45c0.35-0.33,0.79-0.51,1.24-0.51
		c0.43,0,0.88,0.18,1.24,0.51l3.81,3.81c0.67,0.69,1.77,0.69,2.47,0l3.81-3.81c0.69-0.69,1.79-0.69,2.47,0
		c0.26,0.26,0.41,0.57,0.47,0.9c0.02,0.1,0.04,0.22,0.04,0.33c0,0.12-0.02,0.24-0.04,0.33c-0.06,0.33-0.22,0.65-0.47,0.9l-3.81,3.81
		c-0.69,0.69-0.69,1.79,0,2.47l3.81,3.81C24.21,21.73,24.21,22.83,23.52,23.52z"/>
</g>
</svg>
