<?xml version="1.0" encoding="utf-8"?>
<!-- Generator: Adobe Illustrator 25.0.0, SVG Export Plug-In . SVG Version: 6.00 Build 0)  -->
<svg version="1.1" id="Layer_1" xmlns="http://www.w3.org/2000/svg" xmlns:xlink="http://www.w3.org/1999/xlink" x="0px" y="0px"
	 viewBox="0 0 64 64" style="enable-background:new 0 0 64 64;" xml:space="preserve">
<style type="text/css">
	.st0{fill:#010202;}
</style>
<path class="st0" d="M62.76,22.05v27.56c0,2.96-2.4,5.36-5.36,5.36H6.61c-2.95,0-5.35-2.4-5.35-5.35V21.96
	c0,0,27.27,18.25,27.27,18.25c2.14,1.43,4.93,1.44,7.08,0.01L62.76,22.05z"/>
<path class="st0" d="M62.76,14.4c0.11,1.67-0.59,3.33-2.01,4.27c0,0-5.05,3.37-5.05,3.37L34.74,36.06c-1.62,1.08-3.73,1.08-5.34,0
	C25.68,33.57,6.56,20.77,3.27,18.57c-4.09-2.86-1.56-9.66,3.35-9.54c0,0,50.78,0,50.78,0C60.36,9.04,62.76,11.44,62.76,14.4z"/>
</svg>
