<?xml version="1.0" encoding="utf-8"?>
<!-- Generator: Adobe Illustrator 25.0.0, SVG Export Plug-In . SVG Version: 6.00 Build 0)  -->
<svg version="1.1" id="Layer_1" xmlns="http://www.w3.org/2000/svg" xmlns:xlink="http://www.w3.org/1999/xlink" x="0px" y="0px"
	 viewBox="0 0 64 64" style="enable-background:new 0 0 64 64;" xml:space="preserve">
<style type="text/css">
	.st0{fill:#010202;}
</style>
<path class="st0" d="M52.16,15.65C49.59,6.95,41.54,0.6,32,0.6S14.41,6.95,11.84,15.65c-0.56,1.89-0.86,3.89-0.86,5.96
	c0,3.26,0.74,6.35,2.07,9.1v0.01l1.12,2.02l16.48,29.77l0.12,0.22c0.26,0.4,0.71,0.67,1.23,0.67s0.97-0.27,1.23-0.67l0.12-0.22
	l16.61-29.97l0.02-0.03l0.71-1.29c1.49-2.88,2.33-6.14,2.33-9.61C53.02,19.54,52.72,17.54,52.16,15.65z M32,32.13
	c-5.81,0-10.52-4.71-10.52-10.52c0-2.22,0.69-4.27,1.86-5.96C25.23,12.9,28.4,11.1,32,11.1s6.77,1.8,8.66,4.55
	c1.17,1.69,1.86,3.74,1.86,5.96C42.52,27.42,37.81,32.13,32,32.13z"/>
</svg>
