<?xml version="1.0" encoding="utf-8"?>
<!-- Generator: Adobe Illustrator 25.0.0, SVG Export Plug-In . SVG Version: 6.00 Build 0)  -->
<svg version="1.1" id="Layer_1" xmlns="http://www.w3.org/2000/svg" xmlns:xlink="http://www.w3.org/1999/xlink" x="0px" y="0px"
	 viewBox="0 0 64 64" style="enable-background:new 0 0 64 64;" xml:space="preserve">
<style type="text/css">
	.st0{fill:#010202;}
</style>
<path class="st0" d="M60.62,53.96c0,0-1.58,1.67-5.38,5.7c-3.8,4.03-12.15,1.8-12.15,1.8c-10.75-2.87-21.03-11.73-24.33-14.78
	c-0.21-0.19-0.39-0.36-0.54-0.5c-0.09-0.09-0.17-0.17-0.24-0.23c-0.1-0.11-0.2-0.21-0.31-0.32C14.52,42.41,5.38,32.4,2.2,21.74
	c0,0-2.47-8.28,1.45-12.2C7.57,5.62,9.19,4,9.19,4s4.22-4.66,8.88,0c4.66,4.66,7.24,7.25,7.24,7.25s8.12,6.76,0,10.34
	c0,0-6.42,1.84-4.48,7.6c1.48,4.4,4,7.33,5.12,8.47c0,0,0.02,0.02,0.06,0.07c0.03,0.03,0.07,0.07,0.09,0.09
	c0.09,0.09,0.22,0.21,0.39,0.37c1.16,1.07,4.16,3.51,8.62,4.87c5.81,1.77,7.46-4.71,7.46-4.71c3.34-8.21,10.34-0.3,10.34-0.3
	s2.66,2.52,7.45,7.04C65.15,49.61,60.62,53.96,60.62,53.96z"/>
</svg>
