<?xml version="1.0" encoding="utf-8"?>
<!-- Generator: Adobe Illustrator 25.0.0, SVG Export Plug-In . SVG Version: 6.00 Build 0)  -->
<svg version="1.1" id="Layer_1" xmlns="http://www.w3.org/2000/svg" xmlns:xlink="http://www.w3.org/1999/xlink" x="0px" y="0px"
	 viewBox="0 0 64 64" style="enable-background:new 0 0 64 64;" xml:space="preserve">
<style type="text/css">
	.st0{fill:#754695;}
</style>
<path class="st0" d="M32,0.98C14.87,0.98,0.98,14.87,0.98,32S14.87,63.02,32,63.02S63.02,49.13,63.02,32S49.13,0.98,32,0.98z
	 M46.51,46.31c-0.86,0.86-2.24,0.86-3.1,0l-9.19-9.19l-4.38-4.38V14.03c0-1.21,0.98-2.19,2.19-2.19c0.61,0,1.15,0.24,1.55,0.64
	c0.4,0.4,0.64,0.94,0.64,1.55v16.9l12.29,12.29C47.36,44.07,47.36,45.46,46.51,46.31z"/>
</svg>
